<svg width="17" height="17" viewBox="0 0 17 17" fill="none" xmlns="http://www.w3.org/2000/svg">
<rect x="0.285645" y="0.666748" width="16" height="16" rx="8" fill="#ECECEC"/>
<path fill-rule="evenodd" clip-rule="evenodd" d="M9.22848 8.66667L12.0905 5.80467C12.3511 5.544 12.3511 5.12267 12.0905 4.862C11.8298 4.60134 11.4085 4.60134 11.1478 4.862L8.28581 7.724L5.42381 4.862C5.16314 4.60134 4.74181 4.60134 4.48114 4.862C4.22048 5.12267 4.22048 5.544 4.48114 5.80467L7.34314 8.66667L4.48114 11.5287C4.22048 11.7893 4.22048 12.2107 4.48114 12.4713C4.61114 12.6013 4.78181 12.6667 4.95248 12.6667C5.12314 12.6667 5.29381 12.6013 5.42381 12.4713L8.28581 9.60934L11.1478 12.4713C11.2778 12.6013 11.4485 12.6667 11.6191 12.6667C11.7898 12.6667 11.9605 12.6013 12.0905 12.4713C12.3511 12.2107 12.3511 11.7893 12.0905 11.5287L9.22848 8.66667Z" fill="#9E9E9E"/>
</svg>
