<svg width="20" height="20" viewBox="0 0 20 20" fill="none" xmlns="http://www.w3.org/2000/svg">
<path d="M9.40843 9.99992L12.3584 7.04992C12.5136 6.89378 12.6008 6.68257 12.6008 6.46242C12.6008 6.24226 12.5136 6.03105 12.3584 5.87492C12.281 5.79681 12.1888 5.73481 12.0872 5.69251C11.9857 5.6502 11.8768 5.62842 11.7668 5.62842C11.6568 5.62842 11.5478 5.6502 11.4463 5.69251C11.3447 5.73481 11.2526 5.79681 11.1751 5.87492L7.64176 9.40825C7.56366 9.48572 7.50166 9.57789 7.45935 9.67944C7.41705 9.78098 7.39526 9.88991 7.39526 9.99992C7.39526 10.1099 7.41705 10.2188 7.45935 10.3204C7.50166 10.4219 7.56366 10.5141 7.64176 10.5916L11.1751 14.1666C11.253 14.2438 11.3453 14.3049 11.4468 14.3464C11.5484 14.3879 11.6571 14.4089 11.7668 14.4082C11.8764 14.4089 11.9852 14.3879 12.0867 14.3464C12.1882 14.3049 12.2806 14.2438 12.3584 14.1666C12.5136 14.0104 12.6008 13.7992 12.6008 13.5791C12.6008 13.3589 12.5136 13.1477 12.3584 12.9916L9.40843 9.99992Z" fill="#959595"/>
</svg>
