<svg width="16" height="16" viewBox="0 0 16 16" fill="none" xmlns="http://www.w3.org/2000/svg">
<path d="M2.33342 4C2.20156 4 2.07267 4.0391 1.96303 4.11235C1.8534 4.18561 1.76795 4.28973 1.7175 4.41154C1.66704 4.53336 1.65383 4.66741 1.67956 4.79673C1.70528 4.92605 1.76878 5.04484 1.86201 5.13807C1.95525 5.23131 2.07403 5.2948 2.20335 5.32052C2.33268 5.34625 2.46672 5.33304 2.58854 5.28259C2.71035 5.23213 2.81447 5.14668 2.88773 5.03705C2.96098 4.92741 3.00008 4.79852 3.00008 4.66667C3.00008 4.48986 2.92984 4.32029 2.80482 4.19526C2.6798 4.07024 2.51023 4 2.33342 4ZM5.00008 5.33333H14.3334C14.5102 5.33333 14.6798 5.2631 14.8048 5.13807C14.9298 5.01305 15.0001 4.84348 15.0001 4.66667C15.0001 4.48986 14.9298 4.32029 14.8048 4.19526C14.6798 4.07024 14.5102 4 14.3334 4H5.00008C4.82327 4 4.6537 4.07024 4.52868 4.19526C4.40365 4.32029 4.33342 4.48986 4.33342 4.66667C4.33342 4.84348 4.40365 5.01305 4.52868 5.13807C4.6537 5.2631 4.82327 5.33333 5.00008 5.33333ZM5.00008 7.33333C4.86823 7.33333 4.73933 7.37243 4.6297 7.44569C4.52007 7.51894 4.43462 7.62306 4.38416 7.74488C4.3337 7.86669 4.3205 8.00074 4.34622 8.13006C4.37195 8.25938 4.43544 8.37817 4.52868 8.4714C4.62191 8.56464 4.7407 8.62813 4.87002 8.65386C4.99934 8.67958 5.13339 8.66638 5.2552 8.61592C5.37702 8.56546 5.48114 8.48001 5.55439 8.37038C5.62765 8.26075 5.66675 8.13185 5.66675 8C5.66675 7.82319 5.59651 7.65362 5.47149 7.5286C5.34646 7.40357 5.17689 7.33333 5.00008 7.33333ZM7.66675 10.6667C7.53489 10.6667 7.406 10.7058 7.29637 10.779C7.18674 10.8523 7.10129 10.9564 7.05083 11.0782C7.00037 11.2 6.98717 11.3341 7.01289 11.4634C7.03862 11.5927 7.10211 11.7115 7.19534 11.8047C7.28858 11.898 7.40737 11.9615 7.53669 11.9872C7.66601 12.0129 7.80005 11.9997 7.92187 11.9493C8.04369 11.8988 8.14781 11.8133 8.22106 11.7037C8.29432 11.5941 8.33342 11.4652 8.33342 11.3333C8.33342 11.1565 8.26318 10.987 8.13815 10.8619C8.01313 10.7369 7.84356 10.6667 7.66675 10.6667ZM14.3334 7.33333H7.66675C7.48994 7.33333 7.32037 7.40357 7.19534 7.5286C7.07032 7.65362 7.00008 7.82319 7.00008 8C7.00008 8.17681 7.07032 8.34638 7.19534 8.4714C7.32037 8.59643 7.48994 8.66667 7.66675 8.66667H14.3334C14.5102 8.66667 14.6798 8.59643 14.8048 8.4714C14.9298 8.34638 15.0001 8.17681 15.0001 8C15.0001 7.82319 14.9298 7.65362 14.8048 7.5286C14.6798 7.40357 14.5102 7.33333 14.3334 7.33333ZM14.3334 10.6667H10.3334C10.1566 10.6667 9.98704 10.7369 9.86201 10.8619C9.73699 10.987 9.66675 11.1565 9.66675 11.3333C9.66675 11.5101 9.73699 11.6797 9.86201 11.8047C9.98704 11.9298 10.1566 12 10.3334 12H14.3334C14.5102 12 14.6798 11.9298 14.8048 11.8047C14.9298 11.6797 15.0001 11.5101 15.0001 11.3333C15.0001 11.1565 14.9298 10.987 14.8048 10.8619C14.6798 10.7369 14.5102 10.6667 14.3334 10.6667Z" fill="#959595"/>
</svg>
