<svg width="16" height="16" viewBox="0 0 16 16" fill="none" xmlns="http://www.w3.org/2000/svg">
<path d="M12.6667 7.33341H8.66675V3.33341C8.66675 3.1566 8.59651 2.98703 8.47149 2.86201C8.34646 2.73699 8.17689 2.66675 8.00008 2.66675C7.82327 2.66675 7.6537 2.73699 7.52868 2.86201C7.40365 2.98703 7.33341 3.1566 7.33341 3.33341V7.33341H3.33341C3.1566 7.33341 2.98703 7.40365 2.86201 7.52868C2.73699 7.6537 2.66675 7.82327 2.66675 8.00008C2.66675 8.17689 2.73699 8.34646 2.86201 8.47149C2.98703 8.59651 3.1566 8.66675 3.33341 8.66675H7.33341V12.6667C7.33341 12.8436 7.40365 13.0131 7.52868 13.1382C7.6537 13.2632 7.82327 13.3334 8.00008 13.3334C8.17689 13.3334 8.34646 13.2632 8.47149 13.1382C8.59651 13.0131 8.66675 12.8436 8.66675 12.6667V8.66675H12.6667C12.8436 8.66675 13.0131 8.59651 13.1382 8.47149C13.2632 8.34646 13.3334 8.17689 13.3334 8.00008C13.3334 7.82327 13.2632 7.6537 13.1382 7.52868C13.0131 7.40365 12.8436 7.33341 12.6667 7.33341Z" fill="#959595"/>
</svg>
