<svg width="17" height="17" viewBox="0 0 17 17" fill="none" xmlns="http://www.w3.org/2000/svg">
<path d="M13.0952 8.00016H9.09521V4.00016C9.09521 3.82335 9.02498 3.65378 8.89995 3.52876C8.77493 3.40373 8.60536 3.3335 8.42855 3.3335C8.25174 3.3335 8.08217 3.40373 7.95714 3.52876C7.83212 3.65378 7.76188 3.82335 7.76188 4.00016V8.00016H3.76188C3.58507 8.00016 3.4155 8.0704 3.29048 8.19542C3.16545 8.32045 3.09521 8.49002 3.09521 8.66683C3.09521 8.84364 3.16545 9.01321 3.29048 9.13823C3.4155 9.26326 3.58507 9.3335 3.76188 9.3335H7.76188V13.3335C7.76188 13.5103 7.83212 13.6799 7.95714 13.8049C8.08217 13.9299 8.25174 14.0002 8.42855 14.0002C8.60536 14.0002 8.77493 13.9299 8.89995 13.8049C9.02498 13.6799 9.09521 13.5103 9.09521 13.3335V9.3335H13.0952C13.272 9.3335 13.4416 9.26326 13.5666 9.13823C13.6916 9.01321 13.7619 8.84364 13.7619 8.66683C13.7619 8.49002 13.6916 8.32045 13.5666 8.19542C13.4416 8.0704 13.272 8.00016 13.0952 8.00016Z" fill="#959595"/>
</svg>
