<svg width="17" height="17" viewBox="0 0 17 17" fill="none" xmlns="http://www.w3.org/2000/svg">
<path d="M12.9524 8.00016H8.95239V4.00016C8.95239 3.82335 8.88215 3.65378 8.75713 3.52876C8.63211 3.40373 8.46254 3.3335 8.28573 3.3335C8.10891 3.3335 7.93935 3.40373 7.81432 3.52876C7.6893 3.65378 7.61906 3.82335 7.61906 4.00016V8.00016H3.61906C3.44225 8.00016 3.27268 8.0704 3.14765 8.19542C3.02263 8.32045 2.95239 8.49002 2.95239 8.66683C2.95239 8.84364 3.02263 9.01321 3.14765 9.13823C3.27268 9.26326 3.44225 9.3335 3.61906 9.3335H7.61906V13.3335C7.61906 13.5103 7.6893 13.6799 7.81432 13.8049C7.93935 13.9299 8.10891 14.0002 8.28573 14.0002C8.46254 14.0002 8.63211 13.9299 8.75713 13.8049C8.88215 13.6799 8.95239 13.5103 8.95239 13.3335V9.3335H12.9524C13.1292 9.3335 13.2988 9.26326 13.4238 9.13823C13.5488 9.01321 13.6191 8.84364 13.6191 8.66683C13.6191 8.49002 13.5488 8.32045 13.4238 8.19542C13.2988 8.0704 13.1292 8.00016 12.9524 8.00016Z" fill="#4877EF"/>
</svg>
