<svg width="22" height="22" viewBox="0 0 22 22" fill="none" xmlns="http://www.w3.org/2000/svg">
<g clip-path="url(#clip0_5950_70284)">
<path d="M20.1667 13.7501H18.3334V11.0001C18.3334 10.757 18.2368 10.5238 18.0649 10.3519C17.893 10.18 17.6599 10.0834 17.4167 10.0834H11.9167V8.25008H13.7501C13.9932 8.25008 14.2264 8.1535 14.3983 7.9816C14.5702 7.80969 14.6667 7.57653 14.6667 7.33341V1.83341C14.6667 1.5903 14.5702 1.35714 14.3983 1.18523C14.2264 1.01333 13.9932 0.916748 13.7501 0.916748H8.25008C8.00697 0.916748 7.77381 1.01333 7.6019 1.18523C7.42999 1.35714 7.33341 1.5903 7.33341 1.83341V7.33341C7.33341 7.57653 7.42999 7.80969 7.6019 7.9816C7.77381 8.1535 8.00697 8.25008 8.25008 8.25008H10.0834V10.0834H4.58341C4.3403 10.0834 4.10714 10.18 3.93523 10.3519C3.76333 10.5238 3.66675 10.757 3.66675 11.0001V13.7501H1.83341C1.5903 13.7501 1.35714 13.8467 1.18523 14.0186C1.01333 14.1905 0.916748 14.4236 0.916748 14.6667V20.1667C0.916748 20.4099 1.01333 20.643 1.18523 20.8149C1.35714 20.9868 1.5903 21.0834 1.83341 21.0834H7.33341C7.57653 21.0834 7.80969 20.9868 7.9816 20.8149C8.1535 20.643 8.25008 20.4099 8.25008 20.1667V14.6667C8.25008 14.4236 8.1535 14.1905 7.9816 14.0186C7.80969 13.8467 7.57653 13.7501 7.33341 13.7501H5.50008V11.9167H16.5001V13.7501H14.6667C14.4236 13.7501 14.1905 13.8467 14.0186 14.0186C13.8467 14.1905 13.7501 14.4236 13.7501 14.6667V20.1667C13.7501 20.4099 13.8467 20.643 14.0186 20.8149C14.1905 20.9868 14.4236 21.0834 14.6667 21.0834H20.1667C20.4099 21.0834 20.643 20.9868 20.8149 20.8149C20.9868 20.643 21.0834 20.4099 21.0834 20.1667V14.6667C21.0834 14.4236 20.9868 14.1905 20.8149 14.0186C20.643 13.8467 20.4099 13.7501 20.1667 13.7501ZM6.41675 15.5834V19.2501H2.75008V15.5834H6.41675ZM9.16675 6.41675V2.75008H12.8334V6.41675H9.16675ZM19.2501 19.2501H15.5834V15.5834H19.2501V19.2501Z" fill="white" fill-opacity="0.4"/>
</g>
<defs>
<clipPath id="clip0_5950_70284">
<rect width="22" height="22" fill="white"/>
</clipPath>
</defs>
</svg>
