<svg width="22" height="22" viewBox="0 0 22 22" fill="none" xmlns="http://www.w3.org/2000/svg">
<path d="M17.4166 5.95842H14.6666V5.04175C14.6666 4.3124 14.3769 3.61293 13.8611 3.0972C13.3454 2.58148 12.6459 2.29175 11.9166 2.29175H10.0833C9.35391 2.29175 8.65443 2.58148 8.13871 3.0972C7.62298 3.61293 7.33325 4.3124 7.33325 5.04175V5.95842H4.58325C3.85391 5.95842 3.15443 6.24815 2.63871 6.76387C2.12298 7.2796 1.83325 7.97907 1.83325 8.70842V16.9584C1.83325 17.6878 2.12298 18.3872 2.63871 18.903C3.15443 19.4187 3.85391 19.7084 4.58325 19.7084H17.4166C18.1459 19.7084 18.8454 19.4187 19.3611 18.903C19.8769 18.3872 20.1666 17.6878 20.1666 16.9584V8.70842C20.1666 7.97907 19.8769 7.2796 19.3611 6.76387C18.8454 6.24815 18.1459 5.95842 17.4166 5.95842ZM9.16658 5.04175C9.16658 4.79863 9.26316 4.56548 9.43507 4.39357C9.60698 4.22166 9.84014 4.12508 10.0833 4.12508H11.9166C12.1597 4.12508 12.3929 4.22166 12.5648 4.39357C12.7367 4.56548 12.8333 4.79863 12.8333 5.04175V5.95842H9.16658V5.04175ZM18.3333 16.9584C18.3333 17.2015 18.2367 17.4347 18.0648 17.6066C17.8929 17.7785 17.6597 17.8751 17.4166 17.8751H4.58325C4.34014 17.8751 4.10698 17.7785 3.93507 17.6066C3.76316 17.4347 3.66659 17.2015 3.66659 16.9584V12.3292H6.41658V13.2917C6.41658 13.5349 6.51316 13.768 6.68507 13.9399C6.85698 14.1118 7.09014 14.2084 7.33325 14.2084C7.57637 14.2084 7.80952 14.1118 7.98143 13.9399C8.15334 13.768 8.24992 13.5349 8.24992 13.2917V12.3292H13.7499V13.2917C13.7499 13.5349 13.8465 13.768 14.0184 13.9399C14.1903 14.1118 14.4235 14.2084 14.6666 14.2084C14.9097 14.2084 15.1429 14.1118 15.3148 13.9399C15.4867 13.768 15.5833 13.5349 15.5833 13.2917V12.3292H18.3333V16.9584ZM18.3333 10.5417H3.66659V8.70842C3.66659 8.4653 3.76316 8.23214 3.93507 8.06023C4.10698 7.88833 4.34014 7.79175 4.58325 7.79175H17.4166C17.6597 7.79175 17.8929 7.88833 18.0648 8.06023C18.2367 8.23214 18.3333 8.4653 18.3333 8.70842V10.5417Z" fill="white" fill-opacity="0.4"/>
</svg>
