<svg width="22" height="22" viewBox="0 0 22 22" fill="none" xmlns="http://www.w3.org/2000/svg">
<path d="M11.2751 11.2016C11.7642 10.7782 12.1565 10.2546 12.4254 9.66619C12.6943 9.07782 12.8334 8.43849 12.8334 7.79158C12.8334 6.57601 12.3505 5.41022 11.491 4.55068C10.6314 3.69114 9.46566 3.20825 8.25008 3.20825C7.03451 3.20825 5.86872 3.69114 5.00918 4.55068C4.14963 5.41022 3.66675 6.57601 3.66675 7.79158C3.66674 8.43849 3.8059 9.07782 4.07478 9.66619C4.34366 10.2546 4.73597 10.7782 5.22508 11.2016C3.94188 11.7826 2.85317 12.721 2.08915 13.9044C1.32512 15.0878 0.918097 16.4663 0.916748 17.8749C0.916748 18.118 1.01333 18.3512 1.18523 18.5231C1.35714 18.695 1.5903 18.7916 1.83341 18.7916C2.07653 18.7916 2.30969 18.695 2.4816 18.5231C2.6535 18.3512 2.75008 18.118 2.75008 17.8749C2.75008 16.4162 3.32954 15.0173 4.36099 13.9858C5.39244 12.9544 6.79139 12.3749 8.25008 12.3749C9.70877 12.3749 11.1077 12.9544 12.1392 13.9858C13.1706 15.0173 13.7501 16.4162 13.7501 17.8749C13.7501 18.118 13.8467 18.3512 14.0186 18.5231C14.1905 18.695 14.4236 18.7916 14.6667 18.7916C14.9099 18.7916 15.143 18.695 15.3149 18.5231C15.4868 18.3512 15.5834 18.118 15.5834 17.8749C15.5821 16.4663 15.175 15.0878 14.411 13.9044C13.647 12.721 12.5583 11.7826 11.2751 11.2016ZM8.25008 10.5416C7.70618 10.5416 7.1745 10.3803 6.72226 10.0781C6.27003 9.77595 5.91755 9.34646 5.70941 8.84396C5.50127 8.34147 5.44681 7.78853 5.55292 7.25509C5.65903 6.72164 5.92094 6.23164 6.30554 5.84704C6.69013 5.46245 7.18014 5.20054 7.71358 5.09443C8.24703 4.98832 8.79996 5.04278 9.30246 5.25092C9.80496 5.45906 10.2344 5.81153 10.5366 6.26377C10.8388 6.716 11.0001 7.24769 11.0001 7.79158C11.0001 8.52093 10.7104 9.2204 10.1946 9.73613C9.6789 10.2519 8.97943 10.5416 8.25008 10.5416ZM17.1784 10.8349C17.7651 10.1743 18.1483 9.35822 18.2819 8.4849C18.4155 7.61157 18.2939 6.71824 17.9317 5.91242C17.5695 5.1066 16.9821 4.42265 16.2402 3.94289C15.4983 3.46313 14.6336 3.20802 13.7501 3.20825C13.507 3.20825 13.2738 3.30483 13.1019 3.47674C12.93 3.64865 12.8334 3.8818 12.8334 4.12492C12.8334 4.36803 12.93 4.60119 13.1019 4.7731C13.2738 4.94501 13.507 5.04159 13.7501 5.04159C14.4794 5.04159 15.1789 5.33132 15.6946 5.84704C16.2104 6.36277 16.5001 7.06224 16.5001 7.79158C16.4988 8.27306 16.3711 8.74575 16.1298 9.16239C15.8885 9.57903 15.542 9.92502 15.1251 10.1658C14.9892 10.2441 14.8757 10.3561 14.7954 10.4909C14.7152 10.6257 14.6709 10.7789 14.6667 10.9358C14.6629 11.0914 14.6988 11.2454 14.7709 11.3833C14.8431 11.5212 14.9492 11.6385 15.0792 11.7241L15.4367 11.9624L15.5559 12.0266C16.6609 12.5507 17.593 13.3796 18.2426 14.4157C18.8923 15.4518 19.2323 16.652 19.2226 17.8749C19.2226 18.118 19.3192 18.3512 19.4911 18.5231C19.663 18.695 19.8961 18.7916 20.1392 18.7916C20.3824 18.7916 20.6155 18.695 20.7874 18.5231C20.9593 18.3512 21.0559 18.118 21.0559 17.8749C21.0634 16.4682 20.7111 15.083 20.0324 13.8508C19.3538 12.6186 18.3713 11.5805 17.1784 10.8349Z" fill="white" fill-opacity="0.4"/>
</svg>
