<svg width="20" height="20" viewBox="0 0 20 20" fill="none" xmlns="http://www.w3.org/2000/svg">
<path d="M17.5001 1.66675H2.50008C2.27907 1.66675 2.06711 1.75455 1.91083 1.91083C1.75455 2.06711 1.66675 2.27907 1.66675 2.50008V17.5001C1.66675 17.7211 1.75455 17.9331 1.91083 18.0893C2.06711 18.2456 2.27907 18.3334 2.50008 18.3334H17.5001C17.7211 18.3334 17.9331 18.2456 18.0893 18.0893C18.2456 17.9331 18.3334 17.7211 18.3334 17.5001V2.50008C18.3334 2.27907 18.2456 2.06711 18.0893 1.91083C17.9331 1.75455 17.7211 1.66675 17.5001 1.66675ZM9.16675 16.6667H3.33341V8.33342H9.16675V16.6667ZM16.6667 16.6667H10.8334V8.33342H16.6667V16.6667ZM16.6667 6.66675H3.33341V3.33341H16.6667V6.66675Z" fill="#959595"/>
</svg>
